<?xml version="1.0" encoding="UTF-8"?>
<svg width="18px" height="20px" viewBox="0 0 18 20" version="1.1" xmlns="http://www.w3.org/2000/svg" xmlns:xlink="http://www.w3.org/1999/xlink">
    <!-- Generator: Sketch 46.2 (44496) - http://www.bohemiancoding.com/sketch -->
    <title>trash</title>
    <desc>Created with Sketch.</desc>
    <defs></defs>
    <g id="Page-1" stroke="none" stroke-width="1" fill="none" fill-rule="evenodd">
        <g id="trash" fill-rule="nonzero" fill="#FFFFFF">
            <path d="M2.45763,18.1422 C2.51857,18.8126 3.06711,19.3002 3.73754,19.3002 L14.2612,19.3002 C14.9317,19.3002 15.4802,18.7923 15.5411,18.1422 L16.7195,5.79004 L1.2793,5.79004 L2.45763,18.1422 Z" id="Shape"></path>
            <path d="M16.7201,1.93002 L11.5801,1.93002 L11.5801,1.27991 C11.5801,0.568849 11.0113,0 10.3002,0 L7.72009,0 C7.00903,0 6.44018,0.568849 6.44018,1.27991 L6.44018,1.93002 L1.27991,1.93002 C0.568849,1.93002 0,2.49887 0,3.20993 C0,3.92099 0.568849,4.48984 1.27991,4.48984 L16.7201,4.48984 C17.4312,4.48984 18,3.92099 18,3.20993 C18,2.49887 17.4312,1.93002 16.7201,1.93002 Z" id="Shape"></path>
        </g>
    </g>
</svg>